P1
# The image is 3 x 2.
3 2
0 1 0
1 0 1
