P2
# Image is 3 x 3.
3 3
# 9 is the maxium value (white) for each pixel.
9
0 1 2
4 5 6
7 8 9
